<svg id="ejhDJYkntmB1" xmlns="http://www.w3.org/2000/svg" xmlns:xlink="http://www.w3.org/1999/xlink" viewBox="0 0 1024 1024" shape-rendering="geometricPrecision" text-rendering="geometricPrecision" width="614.4" height="614.4"><g transform="matrix(.1 0 0-.1 0 1024)"><path d="M5047,8730c-21-6-50-16-66-25-16-8-68-17-116-20-431-27-945-299-1234-655-286-351-425-654-481-1050-12-86-11-426,1-545c38-346,166-658,395-960c173-229,356-386,654-562c226-133,480-209,561-169c31,16,33,15,57-6c24-22,129-160,185-243c15-23,49-66,77-97c27-31,50-61,50-67c0-21,20-11,34,17c8,16,34,50,58,78c60,68,107,128,156,199c22,33,56,77,74,98l33,38l40-21c31-16,50-20,85-15c97,14,363,112,470,173c180,103,403,280,539,428c330,360,488,762,507,1285c21,625-162,1106-580,1525-114,114-166,157-271,226-273,179-498,267-802,313-54,8-132,23-174,34-95,24-202,33-252,21Zm200-196c45-34,66-84,58-135-13-73-70-119-150-119-60,0-104,19-139,61-25,29-28,39-24,86c5,57,26,88,83,125c43,27,124,19,172-18Zm-422-97c1-40,5-86,9-103l8-31-77-6c-154-13-440-135-603-256-223-166-344-311-481-572-69-132-73-137-109-144-20-3-58-20-85-37-40-26-67-54-148-152-4-5-4,7,0,25c45,193,134,381,287,609c218,326,512,548,891,674c84,28,295,76,303,69c2-2,5-36,5-76Zm822,38c245-59,539-221,738-407c180-168,401-481,424-600c1-5,11-24,22-44c13-24,18-46,14-62-5-21-11-24-40-20-24,3-35,0-35-9c0-16-14-16-79-2-49,10-50,11-61,60-16,64-133,261-214,357-89,107-204,215-318,301-149,110-383,213-551,241-73,12-78,15-72,34c4,12,10,56,12,99c5,75,6,77,32,77c14,0,72-11,128-25Zm-447-390c4-44,12-108,20-142l14-63-35-36c-28-30-39-34-64-30-16,3-39,16-50,29-18,20-20,35-18,164c1,79,4,147,8,153s31,10,63,8l57-3l5-80Zm-345-153c8-113,80-220,178-262c100-43,245-10,329,75c49,50,81,134,75,197l-4,48l41-6c172-25,328-97,491-227c240-193,394-435,473-746c25-99,27-120,26-311-1-170-4-222-22-307-52-241-130-400-285-575-122-139-248-227-440-307l-96-40-463-2-463-2-100,38c-209,78-313,149-477,324-106,113-199,271-260,441-60,170-84,447-54,638c36,236,147,468,321,672c160,188,400,338,635,399c41,11,79,19,83,18c5-1,10-31,12-65Zm2074-787c0-5-6,1-14,15s-14,30-14,35c0,6,6-1,14-15s14-29,14-35Zm-3239,18c-1-25-40-154-56-183-17-32-19-57-18-275l1-240l37-119c20-65,35-120,32-123-10-10-97,38-142,79-63,58-116,141-143,226-20,62-23,87-19,209c3,136,4,139,38,202c57,107,152,198,228,221c36,11,42,11,42,3Zm2997-32c68-44,118-101,158-180c31-63,50-216,43-356-4-70-9-90-44-155-49-94-123-168-195-196-30-12-56-18-57-12-2,5,3,30,11,56c47,145,50,170,51,412c1,174-2,241-12,257-19,34-42,213-27,213c7,0,39-17,72-39ZM3493,6115c28-19,67-38,86-41c25-5,36-14,43-36c21-59,87-186,139-265c115-174,281-339,492-491c56-40,127-90,158-112c30-22,100-90,154-151c55-61,106-114,115-119c35-21-46-9-131,20-182,61-366,170-573,339-140,115-232,216-361,396-115,161-264,479-265,566c0,10,16,0,45-28c25-24,69-59,98-78Zm3402-1c-38-119-95.815195-239-95.815195-202c0,12,46.815195,108,52.815195,110c9,3,8,9-5,22-17,17-21,29-18,55c2,8-2,10-10,5-8-4-10-3-5,4c4,6,13,9,21,5c10-3,15,1,15,13c0,16,2,17,10,4s-72-51,10,3c15.033075,9.89983,50,100,57,93c2-2-12-52-32-112Zm-905.098755-994c0,6,34,39,27,47-12,11-20-52.83051-60.901245-52.83051-50-122-26-65.16949-43-65.16949-2.487305-54-15.487305-22-11.487305-54c1-4,11.487305,0,11.487305,54c0-30-21.523031-77.964299-80.487305-54-13-33-13-54.37353-19-47.37353-2,2,99.487305,71.37353-47.512695,0-17.991436-8.735458-57-33.62647-46-29.62647c10,3,12,2,5-5-10-10-100-43-118-43-6,0,12,24,39,53c27,28,71,80,97,114c42,56,137,134,213,177c90,51,264,196,361,302c168,181,219,256,337,489c11,22,25,43,30,47c7,5,7,8,1,9-8,1,31,12,68,18c34.492729,18.513441-1.487305-152-21.487305-27C6977.99878,6026,6767,6044,6757,6038c-11-6,277.428245,136.223565-4-48-18.406956-12.049235-17-40-23-40-5,0,185,171.008365-10-15-9.406703-8.972951,117.512695,105,142.512695,109c4,0-92.512695-129-92.512695-135c0-5,4-8,9-5s64.563195,92.723565,64.563195,77.723565C6843.563195,5945.723565,6709,5716,6697,5733c-6,8-7,6-3-5c12-39-163-266-318-411-124-116-752.487305-467.700685-760.487305-459.700685-4,3,343,185.700685,336,179.700685-9-7-185.512695-89.37353,221.487305,148-333.487305-190-10,15,0,19-64.601656-48.42396-607.847239-391.319173-63,2-64-2-15,8-12-7m722,776c0-8,4-15,10-15c5,0,7-7,4-15-4-8-14-15-23-15-14,0-14-2-1-11s13-10,0-7c-18,6-5,23,0,78c6,0,10-7,10-15ZM5720,5280c-23-28-74-79-112-113-39-34-109-111-156-172-47-60-118-147-158-192s-87-107-104-137c-18-31-36-56-40-56-11,0-45,41-220,266-85,109-209,255-275,323-84,87-113,122-95,117c85-25,146-28,530-29c398,0,611,11,649,33c9,5,18,10,19,10c2,0-15-23-38-50Z" transform="translate(-47.512695-114.223565)"/><path d="M4461,7309c-105-23-148-49-238-142-147-151-204-356-158-570c22-105,70-192,150-273c78-78,136-114,232-144c62-19,93-20,682-20c674,0,664-1,797,60c117,53,228,183,270,319c75,238,25,456-145,630-62,64-114,97-197,126l-69,24-614,1c-337,0-616,2-620,4-3,2-44-5-90-15Zm240-320c44-11,109-57,136-96c116-165-14-414-217-416-140-1-260,125-260,273c0,87,51,184,113,217c81,42,132,47,228,22Zm1065-14c64-31,107-81,134-153c24-64,25-83,4-151-10-36-30-69-62-103-106-114-229-127-348-38-72,54-104,120-104,214c0,207,189,323,376,231Z"/><path d="M4901,5924c-29-37-27-89,3-117c23-22,30-22,245-22c206,1,223,2,241,20c30,31,34,74,11,113l-21,32h-229-230l-20-26Z"/><path d="M6882,6140c0-14,2-19,5-12c2,6,2,18,0,25-3,6-5,1-5-13Z"/><path d="M6845,6060c3-5,10-10,16-10c5,0,9,5,9,10c0,6-7,10-16,10-8,0-12-4-9-10Z"/><path d="M7808,4746c-55-15-129-72-166-130-24-36-27-50-27-126c0-102,20-146,90-208c68-60,108-75,175-69c140,12,250,132,250,272c0,170-165,304-322,261Zm129-91c81-34,117-97,111-192-5-76-25-107-94-145-123-68-243,2-252,147-5,76,14,122,66,162c57,44,110,52,169,28Z"/><path d="M7780,4603c0-4-2-60-4-125-4-117-3-118,20-124c33-8,44,2,44,42c0,45,32,48,50,4c14-33,37-50,69-50c28,0,26,14-4,55l-26,33l26,28c14,15,28,38,31,50c9,35-17,78-51,85-42,9-155,10-155,2Zm138-69c3-23-11-38-45-48-21-7-23-4-23,34c0,41,1,41,33,38c24-2,33-8,35-24Z"/><path d="M5000,4231c0-12,5-21,10-21c6,0,10,6,10,14s-4,18-10,21c-5,3-10-3-10-14Z"/><path d="M6343,4095c0-33,2-45,4-27s2,45,0,60-4,0-4-33Z"/><path d="M5089,4036c-2-2-3-349-1-770l2-766h354c383,0,448,6,553,55c188,86,278,317,203,519-26,69-111,164-170,191-45,20-47,34-8,53c51,24,117,110,138,179c59,193-19,394-185,476-107,54-129,56-505,57-192,0-356,3-363,6-7,2-15,3-18,0Zm703-332c80-56,100-170,40-227-43-41-77-49-244-54l-158-6v157v156h162c158,0,163-1,200-26Zm18-606c119-60,122-213,7-275-26-14-65-18-209-21l-178-4v156v155l138,4c75,1,151,4,167,5c17,1,51-8,75-20Z" transform="translate(812.84622 58.33382)"/><path d="M2886,3932c-21-53-72-180-112-282s-98-246-129-320-85-205-120-290c-90-221-179-437-204-494-12-27-20-50-19-51c2-1,80,0,175,3l172,4l21,52c54,126,94,211,102,217c13,9,299,11,454,3l132-6l66-134l65-134h175h175l-76,158c-134,278-213,451-323,707-59,138-149,343-200,458l-92,207h-112-111l-39-98Zm185-544c9-18,39-79,68-136c57-113,84-180,73-184-4-2-80-2-169,0-113,2-163,7-163,15c0,17,160,337,168,337c4,0,15-15,23-32Z" transform="translate(902.00056 55.19977)"/><path d="M3788,3869l3-160l199,7l200,7v-612-611h170h170v579c0,318,3,593,6,611l7,32l188-4c138-4,189-2,193,7c2,6,5,78,5,158l1,147h-572-573l3-161Z" transform="translate(763.91451 39.87613)"/><path d="M7233,3320c0-47,2-66,4-42c2,23,2,61,0,85-2,23-4,4-4-43Z"/><path d="M7233,2540c0-36,2-50,4-32c2,17,2,47,0,65-2,17-4,3-4-33Z"/><path d="M4040,2033c-19-10-45-33-57-52-78-116,64-255,182-178c42,27,43,39,9,62-25,16-28,16-36,1-21-38-98-5-98,42c0,59,52,91,90,57c15-14,20-13,43,6c34,26,34,43,2,57-48,22-98,24-135,5Z"/><path d="M5543,2043l-53-4v-130-129h58c87,0,126,14,148,55c18,34,18,35-4,64-18,25-19,31-7,41c23,19,19,67-8,85-28,18-66,23-134,18Zm75-75c3-14-3-18-27-18-25,0-31,4-31,21c0,16,5,20,27,17c17-2,29-10,31-20Zm12-92c0-17-5-21-42-30-25-6-28-4-28,19c0,22,4,25,35,25c24,0,35-5,35-14Z"/><path d="M5891,2033c-122-60-78-253,58-253c58,0,102,26,124,73c59,123-59,240-182,180Zm104-78c31-30,31-52,3-82-27-29-55-29-85-1-28,26-30,61-3,88s56,25,85-5Z"/><path d="M4320,1911v-131h29c27,0,29,3,36,55l6,55h44h44l3-52c3-48,5-52,31-55c16-2,29,1,32,9c2,7,5,66,7,131l3,117h-37-38v-46-45l-47,3-48,3v40c0,38-2,40-32,43l-33,3v-130Z"/><path d="M4762,2027c-6-6-19-35-30-62-11-28-32-70-46-95s-26-55-26-67c0-20,5-23,35-23c31,0,35,3,35,25c0,28,26,39,81,33c26-2,35-8,37-25s11-22,43-25c35-3,38-2,33,17-16,51-84,199-100,216-20,22-47,25-62,6Zm58-144c0-5-37-3-42,2-3,3,0,21,6,39l10,34l13-37c7-20,13-37,13-38Z"/><path d="M4990,2005c0-33,2-35,35-35h35v-100c0-55,4-100,9-100c35,0,41,13,41,84c0,106,5,116,51,116c38,0,39,1,39,35v35h-105-105v-35Z"/><path d="M6190,2005c0-33,2-35,35-35h35v-95-95h35h35v100v100l40-6l40-7v37v36h-110-110v-35Z"/></g><path d="M7400,3261v-769l168,5c92,3,168,6,170,8s6,346,9,764l6,761h-176-177v-769Z"/><path d="M3426,1975c-68-24-76-68-14-73c54-5,78,12,78,53c0,39-6,41-64,20Z" transform="translate(4.97441 0)"/><path d="M3426,1975c0,0-76-68-14-73c54-5,78,12,78,53c0,39-6,41-64,20Z" transform="translate(4.97441 0)"/></svg>
